<svg xmlns="http://www.w3.org/2000/svg" width="110.851251684" height="128" viewBox="0 0 110.851251684 128" role="img"><title>Deserto · 2</title><polygon points="55.425625842,0 110.851251684,32 110.851251684,96 55.425625842,128 0,96 0,32" fill="#F0D29D"/><g transform="translate(38 42) scale(0.89)"><path d="M-18 9 Q-4 -13 17 5 Q5 1 -2 9" fill="none" stroke="#886033" stroke-width="2.5" stroke-linecap="round" stroke-linejoin="round" /><path d="M-9 3 Q0 -4 9 1" fill="none" stroke="#FFF5DB" stroke-width="3" stroke-linecap="round" stroke-linejoin="round" /></g><g transform="translate(76 47) scale(0.94)"><path d="M-18 9 Q-4 -13 17 5 Q5 1 -2 9" fill="none" stroke="#886033" stroke-width="2.5" stroke-linecap="round" stroke-linejoin="round" /><path d="M-9 3 Q0 -4 9 1" fill="none" stroke="#FFF5DB" stroke-width="3" stroke-linecap="round" stroke-linejoin="round" /></g><g transform="translate(38 77) scale(1.01)"><path d="M-18 9 Q-4 -13 17 5 Q5 1 -2 9" fill="none" stroke="#886033" stroke-width="2.5" stroke-linecap="round" stroke-linejoin="round" /><path d="M-9 3 Q0 -4 9 1" fill="none" stroke="#FFF5DB" stroke-width="3" stroke-linecap="round" stroke-linejoin="round" /></g><g transform="translate(71 94) scale(0.91)"><path d="M-18 9 Q-4 -13 17 5 Q5 1 -2 9" fill="none" stroke="#886033" stroke-width="2.5" stroke-linecap="round" stroke-linejoin="round" /><path d="M-9 3 Q0 -4 9 1" fill="none" stroke="#FFF5DB" stroke-width="3" stroke-linecap="round" stroke-linejoin="round" /></g></svg>
