<svg xmlns="http://www.w3.org/2000/svg" width="110.851251684" height="128" viewBox="0 0 110.851251684 128" role="img"><title>Costa · 2</title><polygon points="55.425625842,0 110.851251684,32 110.851251684,96 55.425625842,128 0,96 0,32" fill="#69B7BE"/><path d="M0 32 L55.425625842 0 L110.851251684 32 V49 Q65 28 0 76Z" fill="#EEDBA2"/><g transform="translate(34 39) scale(1.05)"><path d="M-13 0 Q-7 -5 0 0 T13 0" fill="none" stroke="#163F50" stroke-width="2.5" stroke-linecap="round" stroke-linejoin="round" /><path d="M-8 7 Q-3 3 3 7 T13 7" fill="none" stroke="#163F50" stroke-width="1.5" stroke-linecap="round" stroke-linejoin="round" /></g><g transform="translate(73 47) scale(1.01)"><path d="M-13 0 Q-7 -5 0 0 T13 0" fill="none" stroke="#163F50" stroke-width="2.5" stroke-linecap="round" stroke-linejoin="round" /><path d="M-8 7 Q-3 3 3 7 T13 7" fill="none" stroke="#163F50" stroke-width="1.5" stroke-linecap="round" stroke-linejoin="round" /></g><g transform="translate(33 77) scale(1.01)"><path d="M-13 0 Q-7 -5 0 0 T13 0" fill="none" stroke="#163F50" stroke-width="2.5" stroke-linecap="round" stroke-linejoin="round" /><path d="M-8 7 Q-3 3 3 7 T13 7" fill="none" stroke="#163F50" stroke-width="1.5" stroke-linecap="round" stroke-linejoin="round" /></g><g transform="translate(67 90) scale(1.03)"><path d="M-13 0 Q-7 -5 0 0 T13 0" fill="none" stroke="#163F50" stroke-width="2.5" stroke-linecap="round" stroke-linejoin="round" /><path d="M-8 7 Q-3 3 3 7 T13 7" fill="none" stroke="#163F50" stroke-width="1.5" stroke-linecap="round" stroke-linejoin="round" /></g></svg>
